<svg xmlns="http://www.w3.org/2000/svg" xmlns:xlink="http://www.w3.org/1999/xlink" width="1040" height="517.6199999999999"><rect width="1040" height="517.6199999999999" rx="0" ry="0" class="a"></rect><svg height="477.61999999999995" viewBox="0 0 100 47.76199999999999" width="1000" x="20" xmlns="http://www.w3.org/2000/svg" xmlns:xlink="http://www.w3.org/1999/xlink" y="20"><style>.a{fill:rgb(40,45,53)}.b{font-family:'Fira Code',Monaco,Consolas,Menlo,'Bitstream Vera Sans Mono','Powerline Symbols',monospace}.c{fill:rgb(185,192,203);white-space:pre}.d{fill:rgb(210,144,228);font-weight:bold;white-space:pre}.e{fill:rgb(168,204,140);white-space:pre}.f{fill:transparent}.g{fill:rgb(113,190,242);font-weight:bold;white-space:pre}</style><g font-family="&#x27;Fira Code&#x27;,Monaco,Consolas,Menlo,&#x27;Bitstream Vera Sans Mono&#x27;,&#x27;Powerline Symbols&#x27;,monospace" font-size="1.67" class="b"><defs><symbol id="1"><text x="0" y="1.67" class="c">│</text><text x="4.008" y="1.67" class="c">├──</text><text x="8.016" y="1.67" class="c">README.md</text></symbol><symbol id="2"><text x="0" y="1.67" class="c">│</text><text x="4.008" y="1.67" class="c">├──</text><text x="8.016" y="1.67" class="d">fizzbuzz.png</text></symbol><symbol id="3"><text x="0" y="1.67" class="c">│</text><text x="4.008" y="1.67" class="c">├──</text><text x="8.016" y="1.67" class="e">hw1.Rmd</text></symbol><symbol id="4"><text x="0" y="1.67" class="c">│</text><text x="4.008" y="1.67" class="c">├──</text><text x="8.016" y="1.67" class="c">hw1.Rproj</text></symbol><symbol id="5"><text x="0" y="1.67" class="c">│</text><text x="4.008" y="1.67" class="c">├──</text><text x="8.016" y="1.67" class="e">hw1_whitelist.R</text></symbol><symbol id="6"><text x="0" y="1.67" class="c">│</text><text x="4.008" y="1.67" class="c">└──</text><text x="8.016" y="1.67" class="c">wercker.yml</text></symbol><symbol id="a"><rect height="23" width="100" x="0" y="0" class="f"></rect></symbol></defs><rect height="47.76199999999999" width="100" class="a"></rect><svg x="0" y="0" width="100"><svg x="0"><use xlink:href="#a"></use><text x="0" y="1.67" class="g">hw1/</text><text x="0" y="3.8409999999999997" class="c">├──</text><text x="4.008" y="3.8409999999999997" class="g">hw1-team01</text><use xlink:href="#1" y="4.342"></use><use xlink:href="#2" y="6.513"></use><use xlink:href="#3" y="8.684"></use><use xlink:href="#4" y="10.855"></use><use xlink:href="#5" y="13.026"></use><use xlink:href="#6" y="15.197"></use><text x="0" y="19.037999999999997" class="c">├──</text><text x="4.008" y="19.037999999999997" class="g">hw1-team02</text><use xlink:href="#1" y="19.539"></use><use xlink:href="#2" y="21.71"></use><use xlink:href="#3" y="23.880999999999997"></use><use xlink:href="#4" y="26.052"></use><use xlink:href="#5" y="28.223000000000003"></use><use xlink:href="#6" y="30.394"></use><text x="0" y="34.235" class="c">└──</text><text x="4.008" y="34.235" class="g">hw1-team03</text><text x="4.008" y="36.406" class="c">├──</text><text x="8.016" y="36.406" class="c">README.md</text><text x="4.008" y="38.577000000000005" class="c">├──</text><text x="8.016" y="38.577000000000005" class="d">fizzbuzz.png</text><text x="4.008" y="40.748000000000005" class="c">├──</text><text x="8.016" y="40.748000000000005" class="e">hw1.Rmd</text><text x="4.008" y="42.919" class="c">├──</text><text x="8.016" y="42.919" class="c">hw1.Rproj</text><text x="4.008" y="45.09" class="c">├──</text><text x="8.016" y="45.09" class="e">hw1_whitelist.R</text><text x="4.008" y="47.261" class="c">└──</text><text x="8.016" y="47.261" class="c">wercker.yml</text></svg></svg></g></svg></svg>