<svg xmlns="http://www.w3.org/2000/svg" xmlns:xlink="http://www.w3.org/1999/xlink" width="1040" height="170.26"><rect width="1040" height="170.26" rx="0" ry="0" class="a"></rect><svg height="130.26" viewBox="0 0 100 13.026" width="1000" x="20" xmlns="http://www.w3.org/2000/svg" xmlns:xlink="http://www.w3.org/1999/xlink" y="20"><style>.a{fill:rgb(40,45,53)}.b{font-family:'Fira Code',Monaco,Consolas,Menlo,'Bitstream Vera Sans Mono','Powerline Symbols',monospace}.c{fill:transparent}.d{fill:rgb(168,204,140);white-space:pre}.e{fill:rgb(185,192,203);white-space:pre}.f{fill:rgb(113,190,242);white-space:pre}</style><g font-family="&#x27;Fira Code&#x27;,Monaco,Consolas,Menlo,&#x27;Bitstream Vera Sans Mono&#x27;,&#x27;Powerline Symbols&#x27;,monospace" font-size="1.67" class="b"><defs><symbol id="a"><rect height="7" width="100" x="0" y="0" class="c"></rect></symbol></defs><rect height="13.026" width="100" class="a"></rect><svg x="0" y="0" width="100"><svg x="0"><use xlink:href="#a"></use><text x="0" y="1.67" class="d">✓</text><text x="2.004" y="1.67" class="e">Invited</text><text x="10.02" y="1.67" class="e">user</text><text x="15.029999999999998" y="1.67" class="f">&#x27;ghclass-anya&#x27;</text><text x="30.059999999999995" y="1.67" class="e">to</text><text x="33.065999999999995" y="1.67" class="e">org</text><text x="37.074" y="1.67" class="f">&#x27;ghclass-vignette&#x27;</text><text x="55.10999999999999" y="1.67" class="e">.</text><text x="0" y="3.8409999999999997" class="d">✓</text><text x="2.004" y="3.8409999999999997" class="e">Invited</text><text x="10.02" y="3.8409999999999997" class="e">user</text><text x="15.029999999999998" y="3.8409999999999997" class="f">&#x27;ghclass-bruno&#x27;</text><text x="31.061999999999998" y="3.8409999999999997" class="e">to</text><text x="34.068" y="3.8409999999999997" class="e">org</text><text x="38.07599999999999" y="3.8409999999999997" class="f">&#x27;ghclass-vignette&#x27;</text><text x="56.111999999999995" y="3.8409999999999997" class="e">.</text><text x="0" y="6.012" class="d">✓</text><text x="2.004" y="6.012" class="e">Invited</text><text x="10.02" y="6.012" class="e">user</text><text x="15.029999999999998" y="6.012" class="f">&#x27;ghclass-celine&#x27;</text><text x="32.064" y="6.012" class="e">to</text><text x="35.06999999999999" y="6.012" class="e">org</text><text x="39.077999999999996" y="6.012" class="f">&#x27;ghclass-vignette&#x27;</text><text x="57.114" y="6.012" class="e">.</text><text x="0" y="8.183" class="d">✓</text><text x="2.004" y="8.183" class="e">Invited</text><text x="10.02" y="8.183" class="e">user</text><text x="15.029999999999998" y="8.183" class="f">&#x27;ghclass-diego&#x27;</text><text x="31.061999999999998" y="8.183" class="e">to</text><text x="34.068" y="8.183" class="e">org</text><text x="38.07599999999999" y="8.183" class="f">&#x27;ghclass-vignette&#x27;</text><text x="56.111999999999995" y="8.183" class="e">.</text><text x="0" y="10.354" class="d">✓</text><text x="2.004" y="10.354" class="e">Invited</text><text x="10.02" y="10.354" class="e">user</text><text x="15.029999999999998" y="10.354" class="f">&#x27;ghclass-elijah&#x27;</text><text x="32.064" y="10.354" class="e">to</text><text x="35.06999999999999" y="10.354" class="e">org</text><text x="39.077999999999996" y="10.354" class="f">&#x27;ghclass-vignette&#x27;</text><text x="57.114" y="10.354" class="e">.</text><text x="0" y="12.525" class="d">✓</text><text x="2.004" y="12.525" class="e">Invited</text><text x="10.02" y="12.525" class="e">user</text><text x="15.029999999999998" y="12.525" class="f">&#x27;ghclass-francis&#x27;</text><text x="33.065999999999995" y="12.525" class="e">to</text><text x="36.071999999999996" y="12.525" class="e">org</text><text x="40.08" y="12.525" class="f">&#x27;ghclass-vignette&#x27;</text><text x="58.116" y="12.525" class="e">.</text></svg></svg></g></svg></svg>