<svg xmlns="http://www.w3.org/2000/svg" xmlns:xlink="http://www.w3.org/1999/xlink" width="1040" height="235.39000000000001"><rect width="1040" height="235.39000000000001" rx="0" ry="0" class="a"></rect><svg height="195.39000000000001" viewBox="0 0 100 19.539" width="1000" x="20" xmlns="http://www.w3.org/2000/svg" xmlns:xlink="http://www.w3.org/1999/xlink" y="20"><style>.a{fill:rgb(40,45,53)}.b{font-family:'Fira Code',Monaco,Consolas,Menlo,'Bitstream Vera Sans Mono','Powerline Symbols',monospace}.c{fill:transparent}.d{fill:rgb(148,148,148);white-space:pre}.e{fill:rgb(185,192,203);white-space:pre}.f{fill:rgb(148,148,148);font-style:italic;white-space:pre}.g{fill:rgb(188,188,188);white-space:pre}</style><g font-family="&#x27;Fira Code&#x27;,Monaco,Consolas,Menlo,&#x27;Bitstream Vera Sans Mono&#x27;,&#x27;Powerline Symbols&#x27;,monospace" font-size="1.67" class="b"><defs><symbol id="a"><rect height="10" width="100" x="0" y="0" class="c"></rect></symbol></defs><rect height="19.539" width="100" class="a"></rect><svg x="0" y="0" width="100"><svg x="0"><use xlink:href="#a"></use><text x="0" y="1.67" class="d">#</text><text x="2.004" y="1.67" class="d">A</text><text x="4.008" y="1.67" class="d">tibble:</text><text x="12.024" y="1.67" class="d">6</text><text x="14.027999999999999" y="1.67" class="d">x</text><text x="16.032" y="1.67" class="d">5</text><text x="2.004" y="3.8409999999999997" class="e">email</text><text x="21.041999999999998" y="3.8409999999999997" class="e">github</text><text x="37.074" y="3.8409999999999997" class="e">hw1</text><text x="48.096" y="3.8409999999999997" class="e">hw2</text><text x="59.117999999999995" y="3.8409999999999997" class="e">hw3</text><text x="2.004" y="6.012" class="f">&lt;chr&gt;</text><text x="21.041999999999998" y="6.012" class="f">&lt;chr&gt;</text><text x="37.074" y="6.012" class="f">&lt;chr&gt;</text><text x="48.096" y="6.012" class="f">&lt;chr&gt;</text><text x="59.117999999999995" y="6.012" class="f">&lt;chr&gt;</text><text x="0" y="8.183" class="g">1</text><text x="2.004" y="8.183" class="e">anya@school.edu</text><text x="21.041999999999998" y="8.183" class="e">ghclass-anya</text><text x="37.074" y="8.183" class="e">hw1-team01</text><text x="48.096" y="8.183" class="e">hw2-team01</text><text x="59.117999999999995" y="8.183" class="e">hw3-team01</text><text x="0" y="10.354" class="g">2</text><text x="2.004" y="10.354" class="e">bruno@school.edu</text><text x="21.041999999999998" y="10.354" class="e">ghclass-bruno</text><text x="37.074" y="10.354" class="e">hw1-team02</text><text x="48.096" y="10.354" class="e">hw2-team02</text><text x="59.117999999999995" y="10.354" class="e">hw3-team02</text><text x="0" y="12.525" class="g">3</text><text x="2.004" y="12.525" class="e">celine@school.edu</text><text x="21.041999999999998" y="12.525" class="e">ghclass-celine</text><text x="37.074" y="12.525" class="e">hw1-team03</text><text x="48.096" y="12.525" class="e">hw2-team03</text><text x="59.117999999999995" y="12.525" class="e">hw3-team03</text><text x="0" y="14.696" class="g">4</text><text x="2.004" y="14.696" class="e">diego@school.edu</text><text x="21.041999999999998" y="14.696" class="e">ghclass-diego</text><text x="37.074" y="14.696" class="e">hw1-team01</text><text x="48.096" y="14.696" class="e">hw2-team03</text><text x="59.117999999999995" y="14.696" class="e">hw3-team02</text><text x="0" y="16.866999999999997" class="g">5</text><text x="2.004" y="16.866999999999997" class="e">elijah@school.edu</text><text x="21.041999999999998" y="16.866999999999997" class="e">ghclass-elijah</text><text x="37.074" y="16.866999999999997" class="e">hw1-team02</text><text x="48.096" y="16.866999999999997" class="e">hw2-team01</text><text x="59.117999999999995" y="16.866999999999997" class="e">hw3-team03</text><text x="0" y="19.037999999999997" class="g">6</text><text x="2.004" y="19.037999999999997" class="e">francis@school.edu</text><text x="21.041999999999998" y="19.037999999999997" class="e">ghclass-francis</text><text x="37.074" y="19.037999999999997" class="e">hw1-team03</text><text x="48.096" y="19.037999999999997" class="e">hw2-team02</text><text x="59.117999999999995" y="19.037999999999997" class="e">hw3-team01</text></svg></svg></g></svg></svg>