<svg xmlns="http://www.w3.org/2000/svg" xmlns:xlink="http://www.w3.org/1999/xlink" width="1040" height="235.39000000000001"><rect width="1040" height="235.39000000000001" rx="0" ry="0" class="a"></rect><svg height="195.39000000000001" viewBox="0 0 100 19.539" width="1000" x="20" xmlns="http://www.w3.org/2000/svg" xmlns:xlink="http://www.w3.org/1999/xlink" y="20"><style>.a{fill:rgb(40,45,53)}.b{font-family:'Fira Code',Monaco,Consolas,Menlo,'Bitstream Vera Sans Mono','Powerline Symbols',monospace}.c{fill:transparent}.d{fill:rgb(102,194,205);white-space:pre}.e{fill:rgb(185,192,203);font-weight:bold;white-space:pre}.f{fill:rgb(185,192,203);white-space:pre}.g{fill:rgb(111,119,131);white-space:pre}.h{fill:rgb(113,190,242);white-space:pre}.i{fill:rgb(232,131,136);white-space:pre}.j{fill:rgb(185,192,203);font-style:italic;white-space:pre}</style><g font-family="&#x27;Fira Code&#x27;,Monaco,Consolas,Menlo,&#x27;Bitstream Vera Sans Mono&#x27;,&#x27;Powerline Symbols&#x27;,monospace" font-size="1.67" class="b"><defs><symbol id="a"><rect height="10" width="100" x="0" y="0" class="c"></rect></symbol></defs><rect height="19.539" width="100" class="a"></rect><svg x="0" y="0" width="100"><svg x="0"><use xlink:href="#a"></use><text x="0" y="1.67" class="d">──</text><text x="3.006" y="1.67" class="e">ghclass-vignette</text><text x="20.04" y="1.67" class="e">sitrep:</text><text x="28.055999999999997" y="1.67" class="d">────────────────────────────────────────────────────────────────────────</text><text x="0" y="3.8409999999999997" class="d">─</text><text x="0" y="6.012" class="f">●</text><text x="2.004" y="6.012" class="g">Public</text><text x="9.017999999999999" y="6.012" class="g">repos</text><text x="14.027999999999999" y="6.012" class="f">:</text><text x="16.032" y="6.012" class="h">0</text><text x="0" y="8.183" class="f">●</text><text x="2.004" y="8.183" class="g">Private</text><text x="10.02" y="8.183" class="g">repos</text><text x="15.029999999999998" y="8.183" class="f">:</text><text x="17.034" y="8.183" class="h">0</text><text x="0" y="10.354" class="f">●</text><text x="2.004" y="10.354" class="g">Members</text><text x="9.017999999999999" y="10.354" class="f">:</text><text x="11.021999999999998" y="10.354" class="h">0</text><text x="0" y="12.525" class="f">●</text><text x="2.004" y="12.525" class="g">Default</text><text x="10.02" y="12.525" class="g">repository</text><text x="21.041999999999998" y="12.525" class="g">permission</text><text x="31.061999999999998" y="12.525" class="f">:</text><text x="33.065999999999995" y="12.525" class="i">read</text><text x="2.004" y="14.696" class="d">ℹ</text><text x="4.008" y="14.696" class="j">Warning</text><text x="12.024" y="14.696" class="f">-</text><text x="14.027999999999999" y="14.696" class="f">members</text><text x="22.043999999999997" y="14.696" class="f">can</text><text x="26.052" y="14.696" class="f">currently</text><text x="36.071999999999996" y="14.696" class="f">view</text><text x="41.082" y="14.696" class="j">all</text><text x="45.089999999999996" y="14.696" class="f">repos</text><text x="51.102" y="14.696" class="f">in</text><text x="54.108" y="14.696" class="f">this</text><text x="59.117999999999995" y="14.696" class="f">org.</text><text x="0" y="16.866999999999997" class="f">●</text><text x="2.004" y="16.866999999999997" class="g">Members</text><text x="10.02" y="16.866999999999997" class="g">can</text><text x="14.027999999999999" y="16.866999999999997" class="g">create</text><text x="21.041999999999998" y="16.866999999999997" class="g">public</text><text x="28.055999999999997" y="16.866999999999997" class="g">repos</text><text x="33.065999999999995" y="16.866999999999997" class="f">:</text><text x="35.06999999999999" y="16.866999999999997" class="h">TRUE</text><text x="0" y="19.037999999999997" class="f">●</text><text x="2.004" y="19.037999999999997" class="g">Members</text><text x="10.02" y="19.037999999999997" class="g">can</text><text x="14.027999999999999" y="19.037999999999997" class="g">create</text><text x="21.041999999999998" y="19.037999999999997" class="g">private</text><text x="29.058" y="19.037999999999997" class="g">repos</text><text x="34.068" y="19.037999999999997" class="f">:</text><text x="36.071999999999996" y="19.037999999999997" class="h">TRUE</text></svg></svg></g></svg></svg>