<svg xmlns="http://www.w3.org/2000/svg" xmlns:xlink="http://www.w3.org/1999/xlink" width="1040" height="126.83999999999999"><rect width="1040" height="126.83999999999999" rx="0" ry="0" class="a"></rect><svg height="86.83999999999999" viewBox="0 0 100 8.684" width="1000" x="20" xmlns="http://www.w3.org/2000/svg" xmlns:xlink="http://www.w3.org/1999/xlink" y="20"><style>.a{fill:rgb(40,45,53)}.b{font-family:'Fira Code',Monaco,Consolas,Menlo,'Bitstream Vera Sans Mono','Powerline Symbols',monospace}.c{fill:transparent}.d{fill:rgb(232,131,136);white-space:pre}.e{fill:rgb(185,192,203);white-space:pre}.f{fill:rgb(111,119,131);white-space:pre}</style><g font-family="&#x27;Fira Code&#x27;,Monaco,Consolas,Menlo,&#x27;Bitstream Vera Sans Mono&#x27;,&#x27;Powerline Symbols&#x27;,monospace" font-size="1.67" class="b"><defs><symbol id="a"><rect height="5" width="100" x="0" y="0" class="c"></rect></symbol></defs><rect height="8.684" width="100" class="a"></rect><svg x="0" y="0" width="100"><svg x="0"><use xlink:href="#a"></use><text x="0" y="1.67" class="d">x</text><text x="2.004" y="1.67" class="e">Your</text><text x="7.013999999999999" y="1.67" class="e">GitHub</text><text x="14.027999999999999" y="1.67" class="e">PAT</text><text x="18.035999999999998" y="1.67" class="e">failed</text><text x="25.05" y="1.67" class="e">to</text><text x="28.055999999999997" y="1.67" class="e">authenticate.</text><text x="0" y="3.8409999999999997" class="e">└─GitHub</text><text x="9.017999999999999" y="3.8409999999999997" class="e">API</text><text x="13.026" y="3.8409999999999997" class="e">error</text><text x="19.037999999999997" y="3.8409999999999997" class="e">(401):</text><text x="26.052" y="3.8409999999999997" class="e">401</text><text x="30.059999999999995" y="3.8409999999999997" class="e">Unauthorized</text><text x="2.004" y="6.012" class="e">├─</text><text x="5.01" y="6.012" class="e">API</text><text x="9.017999999999999" y="6.012" class="e">message:</text><text x="18.035999999999998" y="6.012" class="f">Bad</text><text x="22.043999999999997" y="6.012" class="f">credentials</text><text x="2.004" y="8.183" class="e">└─</text><text x="5.01" y="8.183" class="e">API</text><text x="9.017999999999999" y="8.183" class="e">docs:</text><text x="15.029999999999998" y="8.183" class="f">https://developer.github.com/v3</text></svg></svg></g></svg></svg>