<svg xmlns="http://www.w3.org/2000/svg" xmlns:xlink="http://www.w3.org/1999/xlink" width="1040" height="691.3"><rect width="1040" height="691.3" rx="0" ry="0" class="a"></rect><svg height="651.3" viewBox="0 0 100 65.13" width="1000" x="20" xmlns="http://www.w3.org/2000/svg" xmlns:xlink="http://www.w3.org/1999/xlink" y="20"><style>.a{fill:rgb(40,45,53)}.b{font-family:'Fira Code',Monaco,Consolas,Menlo,'Bitstream Vera Sans Mono','Powerline Symbols',monospace}.c{fill:rgb(185,192,203);white-space:pre}.d{fill:rgb(111,119,131);white-space:pre}.e{fill:transparent}.f{fill:rgb(168,204,140);white-space:pre}.g{fill:rgb(113,190,242);white-space:pre}.h{fill:rgb(232,131,136);white-space:pre}</style><g font-family="&#x27;Fira Code&#x27;,Monaco,Consolas,Menlo,&#x27;Bitstream Vera Sans Mono&#x27;,&#x27;Powerline Symbols&#x27;,monospace" font-size="1.67" class="b"><defs><symbol id="1"><text x="0" y="1.67" class="c">└─GitHub</text><text x="9.017999999999999" y="1.67" class="c">API</text><text x="13.026" y="1.67" class="c">error</text><text x="19.037999999999997" y="1.67" class="c">(404):</text><text x="26.052" y="1.67" class="c">404</text><text x="30.059999999999995" y="1.67" class="c">Not</text><text x="34.068" y="1.67" class="c">Found</text></symbol><symbol id="2"><text x="2.004" y="1.67" class="c">├─API</text><text x="8.016" y="1.67" class="c">message:</text><text x="17.034" y="1.67" class="d">Not</text><text x="21.041999999999998" y="1.67" class="d">Found</text></symbol><symbol id="3"><text x="2.004" y="1.67" class="c">├─API</text><text x="8.016" y="1.67" class="c">docs:</text><text x="14.027999999999999" y="1.67" class="d">https://developer.github.com/v3/teams/members/#add-or-update-team-</text></symbol><symbol id="4"><text x="2.004" y="1.67" class="c">└─Missing</text><text x="12.024" y="1.67" class="c">page:</text><text x="18.035999999999998" y="1.67" class="d">https://api.github.com/orgs/ghclass-vignette/teams/hw1-team01/</text></symbol><symbol id="a"><rect height="31" width="100" x="0" y="0" class="e"></rect></symbol></defs><rect height="65.13" width="100" class="a"></rect><svg x="0" y="0" width="100"><svg x="0"><use xlink:href="#a"></use><text x="0" y="1.67" class="f">✓</text><text x="2.004" y="1.67" class="c">Mirrored</text><text x="11.021999999999998" y="1.67" class="c">repo</text><text x="16.032" y="1.67" class="g">&#x27;Sta323-Sp19/hw1&#x27;</text><text x="34.068" y="1.67" class="c">to</text><text x="37.074" y="1.67" class="c">repo</text><text x="42.083999999999996" y="1.67" class="g">&#x27;ghclass-vignette/hw1-team01&#x27;</text><text x="71.142" y="1.67" class="c">.</text><text x="0" y="3.8409999999999997" class="f">✓</text><text x="2.004" y="3.8409999999999997" class="c">Mirrored</text><text x="11.021999999999998" y="3.8409999999999997" class="c">repo</text><text x="16.032" y="3.8409999999999997" class="g">&#x27;Sta323-Sp19/hw1&#x27;</text><text x="34.068" y="3.8409999999999997" class="c">to</text><text x="37.074" y="3.8409999999999997" class="c">repo</text><text x="42.083999999999996" y="3.8409999999999997" class="g">&#x27;ghclass-vignette/hw1-team02&#x27;</text><text x="71.142" y="3.8409999999999997" class="c">.</text><text x="0" y="6.012" class="f">✓</text><text x="2.004" y="6.012" class="c">Mirrored</text><text x="11.021999999999998" y="6.012" class="c">repo</text><text x="16.032" y="6.012" class="g">&#x27;Sta323-Sp19/hw1&#x27;</text><text x="34.068" y="6.012" class="c">to</text><text x="37.074" y="6.012" class="c">repo</text><text x="42.083999999999996" y="6.012" class="g">&#x27;ghclass-vignette/hw1-team03&#x27;</text><text x="71.142" y="6.012" class="c">.</text><text x="0" y="8.183" class="f">✓</text><text x="2.004" y="8.183" class="c">Created</text><text x="10.02" y="8.183" class="c">team</text><text x="15.029999999999998" y="8.183" class="g">&#x27;hw1-team01&#x27;</text><text x="28.055999999999997" y="8.183" class="c">in</text><text x="31.061999999999998" y="8.183" class="c">org</text><text x="35.06999999999999" y="8.183" class="g">&#x27;ghclass-vignette&#x27;</text><text x="53.105999999999995" y="8.183" class="c">.</text><text x="0" y="10.354" class="f">✓</text><text x="2.004" y="10.354" class="c">Created</text><text x="10.02" y="10.354" class="c">team</text><text x="15.029999999999998" y="10.354" class="g">&#x27;hw1-team02&#x27;</text><text x="28.055999999999997" y="10.354" class="c">in</text><text x="31.061999999999998" y="10.354" class="c">org</text><text x="35.06999999999999" y="10.354" class="g">&#x27;ghclass-vignette&#x27;</text><text x="53.105999999999995" y="10.354" class="c">.</text><text x="0" y="12.525" class="f">✓</text><text x="2.004" y="12.525" class="c">Created</text><text x="10.02" y="12.525" class="c">team</text><text x="15.029999999999998" y="12.525" class="g">&#x27;hw1-team03&#x27;</text><text x="28.055999999999997" y="12.525" class="c">in</text><text x="31.061999999999998" y="12.525" class="c">org</text><text x="35.06999999999999" y="12.525" class="g">&#x27;ghclass-vignette&#x27;</text><text x="53.105999999999995" y="12.525" class="c">.</text><text x="0" y="14.696" class="h">x</text><text x="2.004" y="14.696" class="c">Failed</text><text x="9.017999999999999" y="14.696" class="c">to</text><text x="12.024" y="14.696" class="c">add</text><text x="16.032" y="14.696" class="c">user</text><text x="21.041999999999998" y="14.696" class="g">&#x27;ghclass-anya&#x27;</text><text x="36.071999999999996" y="14.696" class="c">to</text><text x="39.077999999999996" y="14.696" class="c">team</text><text x="44.087999999999994" y="14.696" class="g">&#x27;hw1-team01&#x27;</text><text x="56.111999999999995" y="14.696" class="c">.</text><use xlink:href="#1" y="17.368"></use><use xlink:href="#2" y="19.539"></use><use xlink:href="#3" y="21.71"></use><use xlink:href="#4" y="23.880999999999997"></use><text x="0" y="27.722" class="f">✓</text><text x="2.004" y="27.722" class="c">Added</text><text x="8.016" y="27.722" class="c">user</text><text x="13.026" y="27.722" class="g">&#x27;ghclass-bruno&#x27;</text><text x="29.058" y="27.722" class="c">to</text><text x="32.064" y="27.722" class="c">team</text><text x="37.074" y="27.722" class="g">&#x27;hw1-team02&#x27;</text><text x="49.098" y="27.722" class="c">.</text><text x="0" y="29.893" class="f">✓</text><text x="2.004" y="29.893" class="c">Added</text><text x="8.016" y="29.893" class="c">user</text><text x="13.026" y="29.893" class="g">&#x27;ghclass-celine&#x27;</text><text x="30.059999999999995" y="29.893" class="c">to</text><text x="33.065999999999995" y="29.893" class="c">team</text><text x="38.07599999999999" y="29.893" class="g">&#x27;hw1-team03&#x27;</text><text x="50.1" y="29.893" class="c">.</text><text x="0" y="32.064" class="h">x</text><text x="2.004" y="32.064" class="c">Failed</text><text x="9.017999999999999" y="32.064" class="c">to</text><text x="12.024" y="32.064" class="c">add</text><text x="16.032" y="32.064" class="c">user</text><text x="21.041999999999998" y="32.064" class="g">&#x27;ghclass-diego&#x27;</text><text x="37.074" y="32.064" class="c">to</text><text x="40.08" y="32.064" class="c">team</text><text x="45.089999999999996" y="32.064" class="g">&#x27;hw1-team01&#x27;</text><text x="57.114" y="32.064" class="c">.</text><use xlink:href="#1" y="34.736"></use><use xlink:href="#2" y="36.907000000000004"></use><use xlink:href="#3" y="39.078"></use><use xlink:href="#4" y="41.248999999999995"></use><text x="0" y="45.09" class="f">✓</text><text x="2.004" y="45.09" class="c">Added</text><text x="8.016" y="45.09" class="c">user</text><text x="13.026" y="45.09" class="g">&#x27;ghclass-elijah&#x27;</text><text x="30.059999999999995" y="45.09" class="c">to</text><text x="33.065999999999995" y="45.09" class="c">team</text><text x="38.07599999999999" y="45.09" class="g">&#x27;hw1-team02&#x27;</text><text x="50.1" y="45.09" class="c">.</text><text x="0" y="47.261" class="f">✓</text><text x="2.004" y="47.261" class="c">Added</text><text x="8.016" y="47.261" class="c">user</text><text x="13.026" y="47.261" class="g">&#x27;ghclass-francis&#x27;</text><text x="31.061999999999998" y="47.261" class="c">to</text><text x="34.068" y="47.261" class="c">team</text><text x="39.077999999999996" y="47.261" class="g">&#x27;hw1-team03&#x27;</text><text x="51.102" y="47.261" class="c">.</text><text x="0" y="49.431999999999995" class="h">x</text><text x="2.004" y="49.431999999999995" class="c">Failed</text><text x="9.017999999999999" y="49.431999999999995" class="c">to</text><text x="12.024" y="49.431999999999995" class="c">add</text><text x="16.032" y="49.431999999999995" class="c">team</text><text x="21.041999999999998" y="49.431999999999995" class="g">&#x27;hw1-team01&#x27;</text><text x="34.068" y="49.431999999999995" class="c">to</text><text x="37.074" y="49.431999999999995" class="c">repo</text><text x="42.083999999999996" y="49.431999999999995" class="g">&#x27;ghclass-vignette/hw1-team01&#x27;</text><text x="71.142" y="49.431999999999995" class="c">.</text><use xlink:href="#1" y="52.104"></use><use xlink:href="#2" y="54.275"></use><text x="2.004" y="58.11600000000001" class="c">├─API</text><text x="8.016" y="58.11600000000001" class="c">docs:</text><text x="14.027999999999999" y="58.11600000000001" class="d">https://developer.github.com/v3/teams/#add-or-update-team-reposito</text><use xlink:href="#4" y="58.617"></use><text x="0" y="62.458" class="f">✓</text><text x="2.004" y="62.458" class="c">Added</text><text x="8.016" y="62.458" class="c">team</text><text x="13.026" y="62.458" class="g">&#x27;hw1-team02&#x27;</text><text x="26.052" y="62.458" class="c">to</text><text x="29.058" y="62.458" class="c">repo</text><text x="34.068" y="62.458" class="g">&#x27;ghclass-vignette/hw1-team02&#x27;</text><text x="64.128" y="62.458" class="c">with</text><text x="69.13799999999999" y="62.458" class="g">&#x27;push&#x27;</text><text x="76.15199999999999" y="62.458" class="c">access.</text><text x="0" y="64.629" class="f">✓</text><text x="2.004" y="64.629" class="c">Added</text><text x="8.016" y="64.629" class="c">team</text><text x="13.026" y="64.629" class="g">&#x27;hw1-team03&#x27;</text><text x="26.052" y="64.629" class="c">to</text><text x="29.058" y="64.629" class="c">repo</text><text x="34.068" y="64.629" class="g">&#x27;ghclass-vignette/hw1-team03&#x27;</text><text x="64.128" y="64.629" class="c">with</text><text x="69.13799999999999" y="64.629" class="g">&#x27;push&#x27;</text><text x="76.15199999999999" y="64.629" class="c">access.</text></svg></svg></g></svg></svg>