<svg xmlns="http://www.w3.org/2000/svg" xmlns:xlink="http://www.w3.org/1999/xlink" width="1040" height="995.2399999999999"><rect width="1040" height="995.2399999999999" rx="0" ry="0" class="a"></rect><svg height="955.2399999999999" viewBox="0 0 100 95.52399999999999" width="1000" x="20" xmlns="http://www.w3.org/2000/svg" xmlns:xlink="http://www.w3.org/1999/xlink" y="20"><style>.a{fill:rgb(40,45,53)}.b{font-family:'Fira Code',Monaco,Consolas,Menlo,'Bitstream Vera Sans Mono','Powerline Symbols',monospace}.c{fill:transparent}.d{fill:rgb(168,204,140);white-space:pre}.e{fill:rgb(185,192,203);white-space:pre}.f{fill:rgb(113,190,242);white-space:pre}</style><g font-family="&#x27;Fira Code&#x27;,Monaco,Consolas,Menlo,&#x27;Bitstream Vera Sans Mono&#x27;,&#x27;Powerline Symbols&#x27;,monospace" font-size="1.67" class="b"><defs><symbol id="a"><rect height="45" width="100" x="0" y="0" class="c"></rect></symbol></defs><rect height="95.52399999999999" width="100" class="a"></rect><svg x="0" y="0" width="100"><svg x="0"><use xlink:href="#a"></use><text x="0" y="1.67" class="d">✓</text><text x="2.004" y="1.67" class="e">Added</text><text x="8.016" y="1.67" class="e">file</text><text x="13.026" y="1.67" class="f">&#x27;aut1/feedback_blank_review.Rmd&#x27;</text><text x="46.09199999999999" y="1.67" class="e">to</text><text x="49.098" y="1.67" class="e">repo</text><text x="54.108" y="1.67" class="f">&#x27;ghclass-vignette/hw1-review-ghclass-diego&#x27;</text><text x="97.19399999999999" y="1.67" class="e">.</text><text x="0" y="3.8409999999999997" class="d">✓</text><text x="2.004" y="3.8409999999999997" class="e">Added</text><text x="8.016" y="3.8409999999999997" class="e">file</text><text x="13.026" y="3.8409999999999997" class="f">&#x27;aut1/feedback_blank_review.Rmd&#x27;</text><text x="46.09199999999999" y="3.8409999999999997" class="e">to</text><text x="49.098" y="3.8409999999999997" class="e">repo</text><text x="54.108" y="3.8409999999999997" class="f">&#x27;ghclass-vignette/hw1-review-ghclass-bruno&#x27;</text><text x="97.19399999999999" y="3.8409999999999997" class="e">.</text><text x="0" y="6.012" class="d">✓</text><text x="2.004" y="6.012" class="e">Added</text><text x="8.016" y="6.012" class="e">file</text><text x="13.026" y="6.012" class="f">&#x27;aut1/fizzbuzz.png&#x27;</text><text x="33.065999999999995" y="6.012" class="e">to</text><text x="36.071999999999996" y="6.012" class="e">repo</text><text x="41.082" y="6.012" class="f">&#x27;ghclass-vignette/hw1-review-ghclass-diego&#x27;</text><text x="84.16799999999999" y="6.012" class="e">.</text><text x="0" y="8.183" class="d">✓</text><text x="2.004" y="8.183" class="e">Added</text><text x="8.016" y="8.183" class="e">file</text><text x="13.026" y="8.183" class="f">&#x27;aut1/hw1.Rmd&#x27;</text><text x="28.055999999999997" y="8.183" class="e">to</text><text x="31.061999999999998" y="8.183" class="e">repo</text><text x="36.071999999999996" y="8.183" class="f">&#x27;ghclass-vignette/hw1-review-ghclass-diego&#x27;</text><text x="79.158" y="8.183" class="e">.</text><text x="0" y="10.354" class="d">✓</text><text x="2.004" y="10.354" class="e">Added</text><text x="8.016" y="10.354" class="e">file</text><text x="13.026" y="10.354" class="f">&#x27;aut1/hw1_whitelist.R&#x27;</text><text x="36.071999999999996" y="10.354" class="e">to</text><text x="39.077999999999996" y="10.354" class="e">repo</text><text x="44.087999999999994" y="10.354" class="f">&#x27;ghclass-vignette/hw1-review-ghclass-diego&#x27;</text><text x="87.17399999999999" y="10.354" class="e">.</text><text x="0" y="12.525" class="d">✓</text><text x="2.004" y="12.525" class="e">Added</text><text x="8.016" y="12.525" class="e">file</text><text x="13.026" y="12.525" class="f">&#x27;aut1/wercker.yml&#x27;</text><text x="32.064" y="12.525" class="e">to</text><text x="35.06999999999999" y="12.525" class="e">repo</text><text x="40.08" y="12.525" class="f">&#x27;ghclass-vignette/hw1-review-ghclass-diego&#x27;</text><text x="83.16599999999998" y="12.525" class="e">.</text><text x="0" y="14.696" class="d">✓</text><text x="2.004" y="14.696" class="e">Added</text><text x="8.016" y="14.696" class="e">file</text><text x="13.026" y="14.696" class="f">&#x27;aut1/fizzbuzz.png&#x27;</text><text x="33.065999999999995" y="14.696" class="e">to</text><text x="36.071999999999996" y="14.696" class="e">repo</text><text x="41.082" y="14.696" class="f">&#x27;ghclass-vignette/hw1-review-ghclass-bruno&#x27;</text><text x="84.16799999999999" y="14.696" class="e">.</text><text x="0" y="16.866999999999997" class="d">✓</text><text x="2.004" y="16.866999999999997" class="e">Added</text><text x="8.016" y="16.866999999999997" class="e">file</text><text x="13.026" y="16.866999999999997" class="f">&#x27;aut1/hw1.Rmd&#x27;</text><text x="28.055999999999997" y="16.866999999999997" class="e">to</text><text x="31.061999999999998" y="16.866999999999997" class="e">repo</text><text x="36.071999999999996" y="16.866999999999997" class="f">&#x27;ghclass-vignette/hw1-review-ghclass-bruno&#x27;</text><text x="79.158" y="16.866999999999997" class="e">.</text><text x="0" y="19.037999999999997" class="d">✓</text><text x="2.004" y="19.037999999999997" class="e">Added</text><text x="8.016" y="19.037999999999997" class="e">file</text><text x="13.026" y="19.037999999999997" class="f">&#x27;aut1/hw1_whitelist.R&#x27;</text><text x="36.071999999999996" y="19.037999999999997" class="e">to</text><text x="39.077999999999996" y="19.037999999999997" class="e">repo</text><text x="44.087999999999994" y="19.037999999999997" class="f">&#x27;ghclass-vignette/hw1-review-ghclass-bruno&#x27;</text><text x="87.17399999999999" y="19.037999999999997" class="e">.</text><text x="0" y="21.209000000000003" class="d">✓</text><text x="2.004" y="21.209000000000003" class="e">Added</text><text x="8.016" y="21.209000000000003" class="e">file</text><text x="13.026" y="21.209000000000003" class="f">&#x27;aut1/wercker.yml&#x27;</text><text x="32.064" y="21.209000000000003" class="e">to</text><text x="35.06999999999999" y="21.209000000000003" class="e">repo</text><text x="40.08" y="21.209000000000003" class="f">&#x27;ghclass-vignette/hw1-review-ghclass-bruno&#x27;</text><text x="83.16599999999998" y="21.209000000000003" class="e">.</text><text x="0" y="23.380000000000003" class="d">✓</text><text x="2.004" y="23.380000000000003" class="e">Added</text><text x="8.016" y="23.380000000000003" class="e">file</text><text x="13.026" y="23.380000000000003" class="f">&#x27;aut2/feedback_blank_review.Rmd&#x27;</text><text x="46.09199999999999" y="23.380000000000003" class="e">to</text><text x="49.098" y="23.380000000000003" class="e">repo</text><text x="54.108" y="23.380000000000003" class="f">&#x27;ghclass-vignette/hw1-review-ghclass-celine&#x27;</text><text x="98.196" y="23.380000000000003" class="e">.</text><text x="0" y="25.550999999999995" class="d">✓</text><text x="2.004" y="25.550999999999995" class="e">Added</text><text x="8.016" y="25.550999999999995" class="e">file</text><text x="13.026" y="25.550999999999995" class="f">&#x27;aut2/feedback_blank_review.Rmd&#x27;</text><text x="46.09199999999999" y="25.550999999999995" class="e">to</text><text x="49.098" y="25.550999999999995" class="e">repo</text><text x="54.108" y="25.550999999999995" class="f">&#x27;ghclass-vignette/hw1-review-ghclass-anya&#x27;</text><text x="96.192" y="25.550999999999995" class="e">.</text><text x="0" y="27.722" class="d">✓</text><text x="2.004" y="27.722" class="e">Added</text><text x="8.016" y="27.722" class="e">file</text><text x="13.026" y="27.722" class="f">&#x27;aut2/fizzbuzz.png&#x27;</text><text x="33.065999999999995" y="27.722" class="e">to</text><text x="36.071999999999996" y="27.722" class="e">repo</text><text x="41.082" y="27.722" class="f">&#x27;ghclass-vignette/hw1-review-ghclass-celine&#x27;</text><text x="85.16999999999999" y="27.722" class="e">.</text><text x="0" y="29.893" class="d">✓</text><text x="2.004" y="29.893" class="e">Added</text><text x="8.016" y="29.893" class="e">file</text><text x="13.026" y="29.893" class="f">&#x27;aut2/hw1.Rmd&#x27;</text><text x="28.055999999999997" y="29.893" class="e">to</text><text x="31.061999999999998" y="29.893" class="e">repo</text><text x="36.071999999999996" y="29.893" class="f">&#x27;ghclass-vignette/hw1-review-ghclass-celine&#x27;</text><text x="80.16" y="29.893" class="e">.</text><text x="0" y="32.064" class="d">✓</text><text x="2.004" y="32.064" class="e">Added</text><text x="8.016" y="32.064" class="e">file</text><text x="13.026" y="32.064" class="f">&#x27;aut2/hw1_whitelist.R&#x27;</text><text x="36.071999999999996" y="32.064" class="e">to</text><text x="39.077999999999996" y="32.064" class="e">repo</text><text x="44.087999999999994" y="32.064" class="f">&#x27;ghclass-vignette/hw1-review-ghclass-celine&#x27;</text><text x="88.17599999999999" y="32.064" class="e">.</text><text x="0" y="34.235" class="d">✓</text><text x="2.004" y="34.235" class="e">Added</text><text x="8.016" y="34.235" class="e">file</text><text x="13.026" y="34.235" class="f">&#x27;aut2/wercker.yml&#x27;</text><text x="32.064" y="34.235" class="e">to</text><text x="35.06999999999999" y="34.235" class="e">repo</text><text x="40.08" y="34.235" class="f">&#x27;ghclass-vignette/hw1-review-ghclass-celine&#x27;</text><text x="84.16799999999999" y="34.235" class="e">.</text><text x="0" y="36.406" class="d">✓</text><text x="2.004" y="36.406" class="e">Added</text><text x="8.016" y="36.406" class="e">file</text><text x="13.026" y="36.406" class="f">&#x27;aut2/fizzbuzz.png&#x27;</text><text x="33.065999999999995" y="36.406" class="e">to</text><text x="36.071999999999996" y="36.406" class="e">repo</text><text x="41.082" y="36.406" class="f">&#x27;ghclass-vignette/hw1-review-ghclass-anya&#x27;</text><text x="83.16599999999998" y="36.406" class="e">.</text><text x="0" y="38.577000000000005" class="d">✓</text><text x="2.004" y="38.577000000000005" class="e">Added</text><text x="8.016" y="38.577000000000005" class="e">file</text><text x="13.026" y="38.577000000000005" class="f">&#x27;aut2/hw1.Rmd&#x27;</text><text x="28.055999999999997" y="38.577000000000005" class="e">to</text><text x="31.061999999999998" y="38.577000000000005" class="e">repo</text><text x="36.071999999999996" y="38.577000000000005" class="f">&#x27;ghclass-vignette/hw1-review-ghclass-anya&#x27;</text><text x="78.15599999999999" y="38.577000000000005" class="e">.</text><text x="0" y="40.748000000000005" class="d">✓</text><text x="2.004" y="40.748000000000005" class="e">Added</text><text x="8.016" y="40.748000000000005" class="e">file</text><text x="13.026" y="40.748000000000005" class="f">&#x27;aut2/hw1_whitelist.R&#x27;</text><text x="36.071999999999996" y="40.748000000000005" class="e">to</text><text x="39.077999999999996" y="40.748000000000005" class="e">repo</text><text x="44.087999999999994" y="40.748000000000005" class="f">&#x27;ghclass-vignette/hw1-review-ghclass-anya&#x27;</text><text x="86.172" y="40.748000000000005" class="e">.</text><text x="0" y="42.919" class="d">✓</text><text x="2.004" y="42.919" class="e">Added</text><text x="8.016" y="42.919" class="e">file</text><text x="13.026" y="42.919" class="f">&#x27;aut2/wercker.yml&#x27;</text><text x="32.064" y="42.919" class="e">to</text><text x="35.06999999999999" y="42.919" class="e">repo</text><text x="40.08" y="42.919" class="f">&#x27;ghclass-vignette/hw1-review-ghclass-anya&#x27;</text><text x="82.164" y="42.919" class="e">.</text><text x="0" y="45.09" class="d">✓</text><text x="2.004" y="45.09" class="e">Added</text><text x="8.016" y="45.09" class="e">file</text><text x="13.026" y="45.09" class="f">&#x27;aut3/feedback_blank_review.Rmd&#x27;</text><text x="46.09199999999999" y="45.09" class="e">to</text><text x="49.098" y="45.09" class="e">repo</text><text x="54.108" y="45.09" class="f">&#x27;ghclass-vignette/hw1-review-ghclass-bruno&#x27;</text><text x="97.19399999999999" y="45.09" class="e">.</text><text x="0" y="47.261" class="d">✓</text><text x="2.004" y="47.261" class="e">Added</text><text x="8.016" y="47.261" class="e">file</text><text x="13.026" y="47.261" class="f">&#x27;aut3/feedback_blank_review.Rmd&#x27;</text><text x="46.09199999999999" y="47.261" class="e">to</text><text x="49.098" y="47.261" class="e">repo</text><text x="54.108" y="47.261" class="f">&#x27;ghclass-vignette/hw1-review-ghclass-diego&#x27;</text><text x="97.19399999999999" y="47.261" class="e">.</text><text x="0" y="49.431999999999995" class="d">✓</text><text x="2.004" y="49.431999999999995" class="e">Added</text><text x="8.016" y="49.431999999999995" class="e">file</text><text x="13.026" y="49.431999999999995" class="f">&#x27;aut3/fizzbuzz.png&#x27;</text><text x="33.065999999999995" y="49.431999999999995" class="e">to</text><text x="36.071999999999996" y="49.431999999999995" class="e">repo</text><text x="41.082" y="49.431999999999995" class="f">&#x27;ghclass-vignette/hw1-review-ghclass-bruno&#x27;</text><text x="84.16799999999999" y="49.431999999999995" class="e">.</text><text x="0" y="51.603" class="d">✓</text><text x="2.004" y="51.603" class="e">Added</text><text x="8.016" y="51.603" class="e">file</text><text x="13.026" y="51.603" class="f">&#x27;aut3/hw1.Rmd&#x27;</text><text x="28.055999999999997" y="51.603" class="e">to</text><text x="31.061999999999998" y="51.603" class="e">repo</text><text x="36.071999999999996" y="51.603" class="f">&#x27;ghclass-vignette/hw1-review-ghclass-bruno&#x27;</text><text x="79.158" y="51.603" class="e">.</text><text x="0" y="53.774" class="d">✓</text><text x="2.004" y="53.774" class="e">Added</text><text x="8.016" y="53.774" class="e">file</text><text x="13.026" y="53.774" class="f">&#x27;aut3/hw1_whitelist.R&#x27;</text><text x="36.071999999999996" y="53.774" class="e">to</text><text x="39.077999999999996" y="53.774" class="e">repo</text><text x="44.087999999999994" y="53.774" class="f">&#x27;ghclass-vignette/hw1-review-ghclass-bruno&#x27;</text><text x="87.17399999999999" y="53.774" class="e">.</text><text x="0" y="55.945" class="d">✓</text><text x="2.004" y="55.945" class="e">Added</text><text x="8.016" y="55.945" class="e">file</text><text x="13.026" y="55.945" class="f">&#x27;aut3/wercker.yml&#x27;</text><text x="32.064" y="55.945" class="e">to</text><text x="35.06999999999999" y="55.945" class="e">repo</text><text x="40.08" y="55.945" class="f">&#x27;ghclass-vignette/hw1-review-ghclass-bruno&#x27;</text><text x="83.16599999999998" y="55.945" class="e">.</text><text x="0" y="58.11600000000001" class="d">✓</text><text x="2.004" y="58.11600000000001" class="e">Added</text><text x="8.016" y="58.11600000000001" class="e">file</text><text x="13.026" y="58.11600000000001" class="f">&#x27;aut3/fizzbuzz.png&#x27;</text><text x="33.065999999999995" y="58.11600000000001" class="e">to</text><text x="36.071999999999996" y="58.11600000000001" class="e">repo</text><text x="41.082" y="58.11600000000001" class="f">&#x27;ghclass-vignette/hw1-review-ghclass-diego&#x27;</text><text x="84.16799999999999" y="58.11600000000001" class="e">.</text><text x="0" y="60.287" class="d">✓</text><text x="2.004" y="60.287" class="e">Added</text><text x="8.016" y="60.287" class="e">file</text><text x="13.026" y="60.287" class="f">&#x27;aut3/hw1.Rmd&#x27;</text><text x="28.055999999999997" y="60.287" class="e">to</text><text x="31.061999999999998" y="60.287" class="e">repo</text><text x="36.071999999999996" y="60.287" class="f">&#x27;ghclass-vignette/hw1-review-ghclass-diego&#x27;</text><text x="79.158" y="60.287" class="e">.</text><text x="0" y="62.458" class="d">✓</text><text x="2.004" y="62.458" class="e">Added</text><text x="8.016" y="62.458" class="e">file</text><text x="13.026" y="62.458" class="f">&#x27;aut3/hw1_whitelist.R&#x27;</text><text x="36.071999999999996" y="62.458" class="e">to</text><text x="39.077999999999996" y="62.458" class="e">repo</text><text x="44.087999999999994" y="62.458" class="f">&#x27;ghclass-vignette/hw1-review-ghclass-diego&#x27;</text><text x="87.17399999999999" y="62.458" class="e">.</text><text x="0" y="64.629" class="d">✓</text><text x="2.004" y="64.629" class="e">Added</text><text x="8.016" y="64.629" class="e">file</text><text x="13.026" y="64.629" class="f">&#x27;aut3/wercker.yml&#x27;</text><text x="32.064" y="64.629" class="e">to</text><text x="35.06999999999999" y="64.629" class="e">repo</text><text x="40.08" y="64.629" class="f">&#x27;ghclass-vignette/hw1-review-ghclass-diego&#x27;</text><text x="83.16599999999998" y="64.629" class="e">.</text><text x="0" y="66.8" class="d">✓</text><text x="2.004" y="66.8" class="e">Added</text><text x="8.016" y="66.8" class="e">file</text><text x="13.026" y="66.8" class="f">&#x27;aut4/feedback_blank_review.Rmd&#x27;</text><text x="46.09199999999999" y="66.8" class="e">to</text><text x="49.098" y="66.8" class="e">repo</text><text x="54.108" y="66.8" class="f">&#x27;ghclass-vignette/hw1-review-ghclass-anya&#x27;</text><text x="96.192" y="66.8" class="e">.</text><text x="0" y="68.971" class="d">✓</text><text x="2.004" y="68.971" class="e">Added</text><text x="8.016" y="68.971" class="e">file</text><text x="13.026" y="68.971" class="f">&#x27;aut4/feedback_blank_review.Rmd&#x27;</text><text x="46.09199999999999" y="68.971" class="e">to</text><text x="49.098" y="68.971" class="e">repo</text><text x="54.108" y="68.971" class="f">&#x27;ghclass-vignette/hw1-review-ghclass-celine&#x27;</text><text x="98.196" y="68.971" class="e">.</text><text x="0" y="71.142" class="d">✓</text><text x="2.004" y="71.142" class="e">Added</text><text x="8.016" y="71.142" class="e">file</text><text x="13.026" y="71.142" class="f">&#x27;aut4/fizzbuzz.png&#x27;</text><text x="33.065999999999995" y="71.142" class="e">to</text><text x="36.071999999999996" y="71.142" class="e">repo</text><text x="41.082" y="71.142" class="f">&#x27;ghclass-vignette/hw1-review-ghclass-anya&#x27;</text><text x="83.16599999999998" y="71.142" class="e">.</text><text x="0" y="73.313" class="d">✓</text><text x="2.004" y="73.313" class="e">Added</text><text x="8.016" y="73.313" class="e">file</text><text x="13.026" y="73.313" class="f">&#x27;aut4/hw1.Rmd&#x27;</text><text x="28.055999999999997" y="73.313" class="e">to</text><text x="31.061999999999998" y="73.313" class="e">repo</text><text x="36.071999999999996" y="73.313" class="f">&#x27;ghclass-vignette/hw1-review-ghclass-anya&#x27;</text><text x="78.15599999999999" y="73.313" class="e">.</text><text x="0" y="75.48400000000001" class="d">✓</text><text x="2.004" y="75.48400000000001" class="e">Added</text><text x="8.016" y="75.48400000000001" class="e">file</text><text x="13.026" y="75.48400000000001" class="f">&#x27;aut4/hw1_whitelist.R&#x27;</text><text x="36.071999999999996" y="75.48400000000001" class="e">to</text><text x="39.077999999999996" y="75.48400000000001" class="e">repo</text><text x="44.087999999999994" y="75.48400000000001" class="f">&#x27;ghclass-vignette/hw1-review-ghclass-anya&#x27;</text><text x="86.172" y="75.48400000000001" class="e">.</text><text x="0" y="77.655" class="d">✓</text><text x="2.004" y="77.655" class="e">Added</text><text x="8.016" y="77.655" class="e">file</text><text x="13.026" y="77.655" class="f">&#x27;aut4/wercker.yml&#x27;</text><text x="32.064" y="77.655" class="e">to</text><text x="35.06999999999999" y="77.655" class="e">repo</text><text x="40.08" y="77.655" class="f">&#x27;ghclass-vignette/hw1-review-ghclass-anya&#x27;</text><text x="82.164" y="77.655" class="e">.</text><text x="0" y="79.82600000000001" class="d">✓</text><text x="2.004" y="79.82600000000001" class="e">Added</text><text x="8.016" y="79.82600000000001" class="e">file</text><text x="13.026" y="79.82600000000001" class="f">&#x27;aut4/fizzbuzz.png&#x27;</text><text x="33.065999999999995" y="79.82600000000001" class="e">to</text><text x="36.071999999999996" y="79.82600000000001" class="e">repo</text><text x="41.082" y="79.82600000000001" class="f">&#x27;ghclass-vignette/hw1-review-ghclass-celine&#x27;</text><text x="85.16999999999999" y="79.82600000000001" class="e">.</text><text x="0" y="81.997" class="d">✓</text><text x="2.004" y="81.997" class="e">Added</text><text x="8.016" y="81.997" class="e">file</text><text x="13.026" y="81.997" class="f">&#x27;aut4/hw1.Rmd&#x27;</text><text x="28.055999999999997" y="81.997" class="e">to</text><text x="31.061999999999998" y="81.997" class="e">repo</text><text x="36.071999999999996" y="81.997" class="f">&#x27;ghclass-vignette/hw1-review-ghclass-celine&#x27;</text><text x="80.16" y="81.997" class="e">.</text><text x="0" y="84.16799999999999" class="d">✓</text><text x="2.004" y="84.16799999999999" class="e">Added</text><text x="8.016" y="84.16799999999999" class="e">file</text><text x="13.026" y="84.16799999999999" class="f">&#x27;aut4/hw1_whitelist.R&#x27;</text><text x="36.071999999999996" y="84.16799999999999" class="e">to</text><text x="39.077999999999996" y="84.16799999999999" class="e">repo</text><text x="44.087999999999994" y="84.16799999999999" class="f">&#x27;ghclass-vignette/hw1-review-ghclass-celine&#x27;</text><text x="88.17599999999999" y="84.16799999999999" class="e">.</text><text x="0" y="86.339" class="d">✓</text><text x="2.004" y="86.339" class="e">Added</text><text x="8.016" y="86.339" class="e">file</text><text x="13.026" y="86.339" class="f">&#x27;aut4/wercker.yml&#x27;</text><text x="32.064" y="86.339" class="e">to</text><text x="35.06999999999999" y="86.339" class="e">repo</text><text x="40.08" y="86.339" class="f">&#x27;ghclass-vignette/hw1-review-ghclass-celine&#x27;</text><text x="84.16799999999999" y="86.339" class="e">.</text><text x="0" y="88.51" class="d">✓</text><text x="2.004" y="88.51" class="e">Created</text><text x="10.02" y="88.51" class="e">issue</text><text x="16.032" y="88.51" class="f">&#x27;Assigning</text><text x="27.054" y="88.51" class="f">review&#x27;</text><text x="35.06999999999999" y="88.51" class="e">for</text><text x="39.077999999999996" y="88.51" class="e">repo</text><text x="44.087999999999994" y="88.51" class="f">&#x27;ghclass-vignette/hw1-review-ghclass-diego&#x27;</text><text x="87.17399999999999" y="88.51" class="e">.</text><text x="0" y="90.681" class="d">✓</text><text x="2.004" y="90.681" class="e">Created</text><text x="10.02" y="90.681" class="e">issue</text><text x="16.032" y="90.681" class="f">&#x27;Assigning</text><text x="27.054" y="90.681" class="f">review&#x27;</text><text x="35.06999999999999" y="90.681" class="e">for</text><text x="39.077999999999996" y="90.681" class="e">repo</text><text x="44.087999999999994" y="90.681" class="f">&#x27;ghclass-vignette/hw1-review-ghclass-bruno&#x27;</text><text x="87.17399999999999" y="90.681" class="e">.</text><text x="0" y="92.852" class="d">✓</text><text x="2.004" y="92.852" class="e">Created</text><text x="10.02" y="92.852" class="e">issue</text><text x="16.032" y="92.852" class="f">&#x27;Assigning</text><text x="27.054" y="92.852" class="f">review&#x27;</text><text x="35.06999999999999" y="92.852" class="e">for</text><text x="39.077999999999996" y="92.852" class="e">repo</text><text x="44.087999999999994" y="92.852" class="f">&#x27;ghclass-vignette/hw1-review-ghclass-celine&#x27;</text><text x="88.17599999999999" y="92.852" class="e">.</text><text x="0" y="95.02300000000001" class="d">✓</text><text x="2.004" y="95.02300000000001" class="e">Created</text><text x="10.02" y="95.02300000000001" class="e">issue</text><text x="16.032" y="95.02300000000001" class="f">&#x27;Assigning</text><text x="27.054" y="95.02300000000001" class="f">review&#x27;</text><text x="35.06999999999999" y="95.02300000000001" class="e">for</text><text x="39.077999999999996" y="95.02300000000001" class="e">repo</text><text x="44.087999999999994" y="95.02300000000001" class="f">&#x27;ghclass-vignette/hw1-review-ghclass-anya&#x27;</text><text x="86.172" y="95.02300000000001" class="e">.</text></svg></svg></g></svg></svg>