<svg xmlns="http://www.w3.org/2000/svg" xmlns:xlink="http://www.w3.org/1999/xlink" width="1040" height="213.67999999999998"><rect width="1040" height="213.67999999999998" rx="0" ry="0" class="a"></rect><svg height="173.67999999999998" viewBox="0 0 100 17.368" width="1000" x="20" xmlns="http://www.w3.org/2000/svg" xmlns:xlink="http://www.w3.org/1999/xlink" y="20"><style>.a{fill:rgb(40,45,53)}.b{font-family:'Fira Code',Monaco,Consolas,Menlo,'Bitstream Vera Sans Mono','Powerline Symbols',monospace}.c{fill:transparent}.d{fill:rgb(168,204,140);white-space:pre}.e{fill:rgb(185,192,203);white-space:pre}.f{fill:rgb(113,190,242);white-space:pre}</style><g font-family="&#x27;Fira Code&#x27;,Monaco,Consolas,Menlo,&#x27;Bitstream Vera Sans Mono&#x27;,&#x27;Powerline Symbols&#x27;,monospace" font-size="1.67" class="b"><defs><symbol id="a"><rect height="9" width="100" x="0" y="0" class="c"></rect></symbol></defs><rect height="17.368" width="100" class="a"></rect><svg x="0" y="0" width="100"><svg x="0"><use xlink:href="#a"></use><text x="0" y="1.67" class="d">✓</text><text x="2.004" y="1.67" class="e">Mirrored</text><text x="11.021999999999998" y="1.67" class="e">repo</text><text x="16.032" y="1.67" class="f">&#x27;Sta323-Sp19/hw1&#x27;</text><text x="34.068" y="1.67" class="e">to</text><text x="37.074" y="1.67" class="e">repo</text><text x="42.083999999999996" y="1.67" class="f">&#x27;ghclass-vignette/hw1-ghclass-anya&#x27;</text><text x="77.154" y="1.67" class="e">.</text><text x="0" y="3.8409999999999997" class="d">✓</text><text x="2.004" y="3.8409999999999997" class="e">Mirrored</text><text x="11.021999999999998" y="3.8409999999999997" class="e">repo</text><text x="16.032" y="3.8409999999999997" class="f">&#x27;Sta323-Sp19/hw1&#x27;</text><text x="34.068" y="3.8409999999999997" class="e">to</text><text x="37.074" y="3.8409999999999997" class="e">repo</text><text x="42.083999999999996" y="3.8409999999999997" class="f">&#x27;ghclass-vignette/hw1-ghclass-bruno&#x27;</text><text x="78.15599999999999" y="3.8409999999999997" class="e">.</text><text x="0" y="6.012" class="d">✓</text><text x="2.004" y="6.012" class="e">Mirrored</text><text x="11.021999999999998" y="6.012" class="e">repo</text><text x="16.032" y="6.012" class="f">&#x27;Sta323-Sp19/hw1&#x27;</text><text x="34.068" y="6.012" class="e">to</text><text x="37.074" y="6.012" class="e">repo</text><text x="42.083999999999996" y="6.012" class="f">&#x27;ghclass-vignette/hw1-ghclass-celine&#x27;</text><text x="79.158" y="6.012" class="e">.</text><text x="0" y="8.183" class="d">✓</text><text x="2.004" y="8.183" class="e">Mirrored</text><text x="11.021999999999998" y="8.183" class="e">repo</text><text x="16.032" y="8.183" class="f">&#x27;Sta323-Sp19/hw1&#x27;</text><text x="34.068" y="8.183" class="e">to</text><text x="37.074" y="8.183" class="e">repo</text><text x="42.083999999999996" y="8.183" class="f">&#x27;ghclass-vignette/hw1-ghclass-diego&#x27;</text><text x="78.15599999999999" y="8.183" class="e">.</text><text x="0" y="10.354" class="d">✓</text><text x="2.004" y="10.354" class="e">Added</text><text x="8.016" y="10.354" class="e">user</text><text x="13.026" y="10.354" class="f">&#x27;ghclass-anya&#x27;</text><text x="28.055999999999997" y="10.354" class="e">to</text><text x="31.061999999999998" y="10.354" class="e">repo</text><text x="36.071999999999996" y="10.354" class="f">&#x27;ghclass-vignette/hw1-ghclass-anya&#x27;</text><text x="71.142" y="10.354" class="e">.</text><text x="0" y="12.525" class="d">✓</text><text x="2.004" y="12.525" class="e">Added</text><text x="8.016" y="12.525" class="e">user</text><text x="13.026" y="12.525" class="f">&#x27;ghclass-bruno&#x27;</text><text x="29.058" y="12.525" class="e">to</text><text x="32.064" y="12.525" class="e">repo</text><text x="37.074" y="12.525" class="f">&#x27;ghclass-vignette/hw1-ghclass-bruno&#x27;</text><text x="73.146" y="12.525" class="e">.</text><text x="0" y="14.696" class="d">✓</text><text x="2.004" y="14.696" class="e">Added</text><text x="8.016" y="14.696" class="e">user</text><text x="13.026" y="14.696" class="f">&#x27;ghclass-celine&#x27;</text><text x="30.059999999999995" y="14.696" class="e">to</text><text x="33.065999999999995" y="14.696" class="e">repo</text><text x="38.07599999999999" y="14.696" class="f">&#x27;ghclass-vignette/hw1-ghclass-celine&#x27;</text><text x="75.14999999999999" y="14.696" class="e">.</text><text x="0" y="16.866999999999997" class="d">✓</text><text x="2.004" y="16.866999999999997" class="e">Added</text><text x="8.016" y="16.866999999999997" class="e">user</text><text x="13.026" y="16.866999999999997" class="f">&#x27;ghclass-diego&#x27;</text><text x="29.058" y="16.866999999999997" class="e">to</text><text x="32.064" y="16.866999999999997" class="e">repo</text><text x="37.074" y="16.866999999999997" class="f">&#x27;ghclass-vignette/hw1-ghclass-diego&#x27;</text><text x="73.146" y="16.866999999999997" class="e">.</text></svg></svg></g></svg></svg>