<svg xmlns="http://www.w3.org/2000/svg" xmlns:xlink="http://www.w3.org/1999/xlink" width="1040" height="257.1"><rect width="1040" height="257.1" rx="0" ry="0" class="a"></rect><svg height="217.10000000000002" viewBox="0 0 100 21.71" width="1000" x="20" xmlns="http://www.w3.org/2000/svg" xmlns:xlink="http://www.w3.org/1999/xlink" y="20"><style>.a{fill:rgb(40,45,53)}.b{font-family:'Fira Code',Monaco,Consolas,Menlo,'Bitstream Vera Sans Mono','Powerline Symbols',monospace}.c{fill:transparent}.d{fill:rgb(185,192,203);font-weight:bold;white-space:pre}.e{fill:rgb(148,148,148);white-space:pre}.f{fill:rgb(185,192,203);white-space:pre}.g{fill:rgb(148,148,148);font-style:italic;white-space:pre}.h{fill:rgb(188,188,188);white-space:pre}.i{fill:rgb(232,131,136);white-space:pre}</style><g font-family="&#x27;Fira Code&#x27;,Monaco,Consolas,Menlo,&#x27;Bitstream Vera Sans Mono&#x27;,&#x27;Powerline Symbols&#x27;,monospace" font-size="1.67" class="b"><defs><symbol id="a"><rect height="11" width="100" x="0" y="0" class="c"></rect></symbol></defs><rect height="21.71" width="100" class="a"></rect><svg x="0" y="0" width="100"><svg x="0"><use xlink:href="#a"></use><text x="0" y="1.67" class="d">New</text><text x="4.008" y="1.67" class="d">names:</text><text x="0" y="3.8409999999999997" class="d">*</text><text x="2.004" y="3.8409999999999997" class="d">NA</text><text x="5.01" y="3.8409999999999997" class="d">-&gt;</text><text x="8.016" y="3.8409999999999997" class="d">...1</text><text x="0" y="6.012" class="d">*</text><text x="2.004" y="6.012" class="d">NA</text><text x="5.01" y="6.012" class="d">-&gt;</text><text x="8.016" y="6.012" class="d">...2</text><text x="0" y="8.183" class="e">#</text><text x="2.004" y="8.183" class="e">A</text><text x="4.008" y="8.183" class="e">tibble:</text><text x="12.024" y="8.183" class="e">4</text><text x="14.027999999999999" y="8.183" class="e">x</text><text x="16.032" y="8.183" class="e">8</text><text x="2.004" y="10.354" class="f">user</text><text x="17.034" y="10.354" class="f">user_random</text><text x="29.058" y="10.354" class="f">rev1</text><text x="35.06999999999999" y="10.354" class="f">rev2</text><text x="41.082" y="10.354" class="f">rev1_c1</text><text x="49.098" y="10.354" class="f">rev1_c2</text><text x="57.114" y="10.354" class="f">rev2_c1</text><text x="65.13" y="10.354" class="f">rev2_c2</text><text x="2.004" y="12.525" class="g">&lt;chr&gt;</text><text x="17.034" y="12.525" class="g">&lt;chr&gt;</text><text x="29.058" y="12.525" class="g">&lt;chr&gt;</text><text x="35.06999999999999" y="12.525" class="g">&lt;chr&gt;</text><text x="43.086" y="12.525" class="g">&lt;dbl&gt;</text><text x="51.102" y="12.525" class="g">&lt;dbl&gt;</text><text x="59.117999999999995" y="12.525" class="g">&lt;dbl&gt;</text><text x="67.134" y="12.525" class="g">&lt;dbl&gt;</text><text x="0" y="14.696" class="h">1</text><text x="2.004" y="14.696" class="f">celine-ghclass</text><text x="17.034" y="14.696" class="f">aut1</text><text x="29.058" y="14.696" class="f">aut4</text><text x="35.06999999999999" y="14.696" class="f">aut2</text><text x="46.09199999999999" y="14.696" class="i">NA</text><text x="54.108" y="14.696" class="i">NA</text><text x="62.123999999999995" y="14.696" class="i">NA</text><text x="70.13999999999999" y="14.696" class="i">NA</text><text x="0" y="16.866999999999997" class="h">2</text><text x="2.004" y="16.866999999999997" class="f">bruno-ghclass</text><text x="17.034" y="16.866999999999997" class="f">aut2</text><text x="29.058" y="16.866999999999997" class="f">aut1</text><text x="35.06999999999999" y="16.866999999999997" class="f">aut3</text><text x="46.09199999999999" y="16.866999999999997" class="i">NA</text><text x="54.108" y="16.866999999999997" class="i">NA</text><text x="62.123999999999995" y="16.866999999999997" class="i">NA</text><text x="70.13999999999999" y="16.866999999999997" class="i">NA</text><text x="0" y="19.037999999999997" class="h">3</text><text x="2.004" y="19.037999999999997" class="f">anya-ghclass</text><text x="17.034" y="19.037999999999997" class="f">aut3</text><text x="29.058" y="19.037999999999997" class="f">aut2</text><text x="35.06999999999999" y="19.037999999999997" class="f">aut4</text><text x="47.093999999999994" y="19.037999999999997" class="f">4</text><text x="55.10999999999999" y="19.037999999999997" class="f">3</text><text x="63.12599999999999" y="19.037999999999997" class="f">2</text><text x="71.142" y="19.037999999999997" class="f">1</text><text x="0" y="21.209000000000003" class="h">4</text><text x="2.004" y="21.209000000000003" class="f">diego-ghclass</text><text x="17.034" y="21.209000000000003" class="f">aut4</text><text x="29.058" y="21.209000000000003" class="f">aut3</text><text x="35.06999999999999" y="21.209000000000003" class="f">aut1</text><text x="46.09199999999999" y="21.209000000000003" class="i">NA</text><text x="54.108" y="21.209000000000003" class="i">NA</text><text x="62.123999999999995" y="21.209000000000003" class="i">NA</text><text x="70.13999999999999" y="21.209000000000003" class="i">NA</text></svg></svg></g></svg></svg>