<svg xmlns="http://www.w3.org/2000/svg" xmlns:xlink="http://www.w3.org/1999/xlink" width="1040" height="213.67999999999998"><rect width="1040" height="213.67999999999998" rx="0" ry="0" class="a"></rect><svg height="173.67999999999998" viewBox="0 0 100 17.368" width="1000" x="20" xmlns="http://www.w3.org/2000/svg" xmlns:xlink="http://www.w3.org/1999/xlink" y="20"><style>.a{fill:rgb(40,45,53)}.b{font-family:'Fira Code',Monaco,Consolas,Menlo,'Bitstream Vera Sans Mono','Powerline Symbols',monospace}.c{fill:transparent}.d{fill:rgb(102,194,205);white-space:pre}.e{fill:rgb(185,192,203);font-weight:bold;white-space:pre}.f{fill:rgb(185,192,203);white-space:pre}.g{fill:rgb(111,119,131);white-space:pre}.h{fill:rgb(113,190,242);white-space:pre}</style><g font-family="&#x27;Fira Code&#x27;,Monaco,Consolas,Menlo,&#x27;Bitstream Vera Sans Mono&#x27;,&#x27;Powerline Symbols&#x27;,monospace" font-size="1.67" class="b"><defs><symbol id="a"><rect height="9" width="100" x="0" y="0" class="c"></rect></symbol></defs><rect height="17.368" width="100" class="a"></rect><svg x="0" y="0" width="100"><svg x="0"><use xlink:href="#a"></use><text x="0" y="1.67" class="d">──</text><text x="3.006" y="1.67" class="e">ghclass-vignette</text><text x="20.04" y="1.67" class="e">sitrep:</text><text x="28.055999999999997" y="1.67" class="d">────────────────────────────────────────────────────────────────────────</text><text x="0" y="3.8409999999999997" class="d">─</text><text x="0" y="6.012" class="f">●</text><text x="2.004" y="6.012" class="g">Public</text><text x="9.017999999999999" y="6.012" class="g">repos</text><text x="14.027999999999999" y="6.012" class="f">:</text><text x="16.032" y="6.012" class="h">0</text><text x="0" y="8.183" class="f">●</text><text x="2.004" y="8.183" class="g">Private</text><text x="10.02" y="8.183" class="g">repos</text><text x="15.029999999999998" y="8.183" class="f">:</text><text x="17.034" y="8.183" class="h">0</text><text x="0" y="10.354" class="f">●</text><text x="2.004" y="10.354" class="g">Members</text><text x="9.017999999999999" y="10.354" class="f">:</text><text x="11.021999999999998" y="10.354" class="h">0</text><text x="0" y="12.525" class="f">●</text><text x="2.004" y="12.525" class="g">Default</text><text x="10.02" y="12.525" class="g">repository</text><text x="21.041999999999998" y="12.525" class="g">permission</text><text x="31.061999999999998" y="12.525" class="f">:</text><text x="33.065999999999995" y="12.525" class="h">&#x27;none&#x27;</text><text x="0" y="14.696" class="f">●</text><text x="2.004" y="14.696" class="g">Members</text><text x="10.02" y="14.696" class="g">can</text><text x="14.027999999999999" y="14.696" class="g">create</text><text x="21.041999999999998" y="14.696" class="g">public</text><text x="28.055999999999997" y="14.696" class="g">repos</text><text x="33.065999999999995" y="14.696" class="f">:</text><text x="35.06999999999999" y="14.696" class="h">TRUE</text><text x="0" y="16.866999999999997" class="f">●</text><text x="2.004" y="16.866999999999997" class="g">Members</text><text x="10.02" y="16.866999999999997" class="g">can</text><text x="14.027999999999999" y="16.866999999999997" class="g">create</text><text x="21.041999999999998" y="16.866999999999997" class="g">private</text><text x="29.058" y="16.866999999999997" class="g">repos</text><text x="34.068" y="16.866999999999997" class="f">:</text><text x="36.071999999999996" y="16.866999999999997" class="h">TRUE</text></svg></svg></g></svg></svg>